<?xml version="1.0" standalone="no"?><!DOCTYPE svg PUBLIC "-//W3C//DTD SVG 1.1//EN" "http://www.w3.org/Graphics/SVG/1.1/DTD/svg11.dtd"><svg t="1721015408311" class="icon" viewBox="0 0 1024 1024" version="1.1" xmlns="http://www.w3.org/2000/svg" p-id="21196" xmlns:xlink="http://www.w3.org/1999/xlink" width="128" height="128"><path d="M780.190476 121.904762a73.142857 73.142857 0 0 1 73.142857 73.142857v633.904762a73.142857 73.142857 0 0 1-73.142857 73.142857H292.571429a73.142857 73.142857 0 0 1-73.142858-73.142857v-48.761905H170.666667v-73.142857h170.666666v73.142857h-48.761904v48.761905h487.619047V195.047619H292.571429v48.761905h48.761904v73.142857H170.666667v-73.142857h48.761904V195.047619a73.142857 73.142857 0 0 1 73.142858-73.142857h487.619047z m-64.682666 121.904762v536.380952h-73.142858V243.809524h73.142858zM292.571429 365.714286v292.571428H219.428571V365.714286h73.142858z" p-id="21197" fill="#ffffff"></path></svg>