<?xml version="1.0" standalone="no"?><!DOCTYPE svg PUBLIC "-//W3C//DTD SVG 1.1//EN" "http://www.w3.org/Graphics/SVG/1.1/DTD/svg11.dtd"><svg t="1721015152476" class="icon" viewBox="0 0 1024 1024" version="1.1" xmlns="http://www.w3.org/2000/svg" p-id="8526" xmlns:xlink="http://www.w3.org/1999/xlink" width="128" height="128"><path d="M696.222476 399.969524h89.965714c-17.017905-132.632381-133.290667-235.227429-274.18819-235.227429-140.921905 0-257.170286 102.619429-274.18819 235.227429h89.965714v302.470095H195.047619a97.52381 97.52381 0 0 1-97.523809-97.523809v-107.422477a97.572571 97.572571 0 0 1 69.363809-93.379047l1.048381-0.292572C183.417905 232.17981 331.53219 97.52381 512 97.52381c180.443429 0 328.582095 134.631619 344.064 306.297904l1.048381 0.292572A97.572571 97.572571 0 0 1 926.47619 497.493333v107.422477a97.52381 97.52381 0 0 1-97.523809 97.523809l-63.683048-0.024381v46.153143a121.953524 121.953524 0 0 1-84.992 116.224A89.721905 89.721905 0 0 1 595.090286 926.47619h-131.632762a89.624381 89.624381 0 0 1 0-179.22438h131.632762c30.915048 0 58.172952 15.652571 74.264381 39.44838a72.850286 72.850286 0 0 0 26.721523-52.297142l0.146286-4.291048v-330.118095z" p-id="8527" fill="#ffffff"></path></svg>