<?xml version="1.0" standalone="no"?><!DOCTYPE svg PUBLIC "-//W3C//DTD SVG 1.1//EN" "http://www.w3.org/Graphics/SVG/1.1/DTD/svg11.dtd"><svg t="1721014982791" class="icon" viewBox="0 0 1024 1024" version="1.1" xmlns="http://www.w3.org/2000/svg" p-id="7535" width="128" height="128" xmlns:xlink="http://www.w3.org/1999/xlink"><path d="M172.227048 238.445714a85.333333 85.333333 0 0 1 64.121904-12.117333l399.628191 83.382857 29.086476-18.919619a292.571429 292.571429 0 0 1 229.254095-39.131429l8.362667 2.194286 38.083048 10.508191a71.753143 71.753143 0 0 1 20.358095 129.072762l-3.608381 2.194285-646.265905 372.906667a73.142857 73.142857 0 0 1-71.801905 0.731429l-4.144762-2.438096-133.12-85.040762a58.489905 58.489905 0 0 1-6.656-93.647238l3.145143-2.511238 45.738667-34.133333a73.142857 73.142857 0 0 1 44.178286-14.555429l5.315047 0.24381 83.163429 6.534095 72.655238-47.396571-210.115048-98.499048a75.751619 75.751619 0 0 1-38.278095-96.475429l1.828572-4.242285c5.973333-12.751238 15.36-23.552 27.136-31.256381z m15.945142 371.638857l-28.769523 21.479619 115.297523 73.630477 643.340191-371.224381-34.816-9.606096a219.428571 219.428571 0 0 0-178.224762 27.696762L296.155429 618.593524l-108.007619-8.508953z m24.064-310.418285l-41.935238 27.40419A2.608762 2.608762 0 0 0 170.666667 331.580952L421.790476 449.340952l127.341714-83.017142L221.403429 297.935238a12.190476 12.190476 0 0 0-7.460572 0.804572l-1.706667 0.926476z m202.361905 569.539047l528.798476-306.346666-36.668952-63.292953L377.904762 805.936762l36.693333 63.268571z" p-id="7536" fill="#ffffff"></path></svg>