<?xml version="1.0" standalone="no"?><!DOCTYPE svg PUBLIC "-//W3C//DTD SVG 1.1//EN" "http://www.w3.org/Graphics/SVG/1.1/DTD/svg11.dtd"><svg t="1722231252768" class="icon" viewBox="0 0 1024 1024" version="1.1" xmlns="http://www.w3.org/2000/svg" p-id="7546" xmlns:xlink="http://www.w3.org/1999/xlink" width="200" height="200"><path d="M780.190476 97.52381a73.142857 73.142857 0 0 1 73.142857 73.142857v682.666666a73.142857 73.142857 0 0 1-73.142857 73.142857H243.809524a73.142857 73.142857 0 0 1-73.142857-73.142857V170.666667a73.142857 73.142857 0 0 1 73.142857-73.142857h536.380952z m0 73.142857H243.809524v682.666666h536.380952V170.666667zM512 707.047619a48.761905 48.761905 0 1 1 0 97.52381 48.761905 48.761905 0 0 1 0-97.52381z m219.428571-487.619048v463.238096H292.571429V219.428571h438.857142z m-73.142857 73.142858H365.714286v316.952381h292.571428V292.571429z" p-id="7547" fill="#ffffff"></path></svg>