<?xml version="1.0" standalone="no"?><!DOCTYPE svg PUBLIC "-//W3C//DTD SVG 1.1//EN" "http://www.w3.org/Graphics/SVG/1.1/DTD/svg11.dtd"><svg t="1721021614573" class="icon" viewBox="0 0 1024 1024" version="1.1" xmlns="http://www.w3.org/2000/svg" p-id="8580" xmlns:xlink="http://www.w3.org/1999/xlink" width="200" height="200"><path d="M550.326857 101.668571a73.142857 73.142857 0 0 1 23.966476 23.942096L662.016 268.190476H828.952381c40.399238 0 73.142857 35.59619 73.142857 79.481905v450.56c0 43.885714-32.743619 79.481905-73.142857 79.481905H195.047619c-40.399238 0-73.142857-35.59619-73.142857-79.481905V347.672381C121.904762 303.786667 154.648381 268.190476 195.047619 268.190476h166.912l87.747048-142.579809a73.142857 73.142857 0 0 1 100.62019-23.966477zM828.952381 341.333333H195.047619v463.238096h633.904762V341.333333z m-170.666667 268.190477v73.142857H243.809524v-73.142857h414.47619z m121.904762-170.666667v73.142857H243.809524v-73.142857h536.380952zM512 163.937524L447.853714 268.190476h128.292572L512 163.937524z" p-id="8581" fill="#ffffff"></path></svg>