<?xml version="1.0" standalone="no"?><!DOCTYPE svg PUBLIC "-//W3C//DTD SVG 1.1//EN" "http://www.w3.org/Graphics/SVG/1.1/DTD/svg11.dtd"><svg t="1722231307518" class="icon" viewBox="0 0 1024 1024" version="1.1" xmlns="http://www.w3.org/2000/svg" p-id="7760" xmlns:xlink="http://www.w3.org/1999/xlink" width="200" height="200"><path d="M862.841905 485.254095l51.443809 51.785143-367.640381 364.909714-16.749714-16.822857 16.822857 16.969143H495.420952v-51.760762L862.841905 485.254095zM766.878476 121.904762a72.996571 72.996571 0 0 1 73.020953 72.97219l-0.024381 218.965334-72.996572 72.97219V194.876952h-401.554286v632.515048h60.854858l-72.996572 72.97219H231.497143A72.996571 72.996571 0 0 1 158.47619 827.416381V194.876952A72.996571 72.996571 0 0 1 231.497143 121.904762h535.405714zM292.327619 194.876952H231.497143v632.515048h60.806095V194.876952z m328.557714 218.940953v72.996571H426.179048v-72.97219h194.681904z m73.020953-145.944381v72.97219H426.179048v-72.97219h267.702857z" p-id="7761" fill="#ffffff"></path></svg>