<?xml version="1.0" standalone="no"?><!DOCTYPE svg PUBLIC "-//W3C//DTD SVG 1.1//EN" "http://www.w3.org/Graphics/SVG/1.1/DTD/svg11.dtd"><svg t="1721021496679" class="icon" viewBox="0 0 1024 1024" version="1.1" xmlns="http://www.w3.org/2000/svg" p-id="8192" xmlns:xlink="http://www.w3.org/1999/xlink" width="200" height="200"><path d="M731.428571 268.190476a73.142857 73.142857 0 0 1 73.142858 73.142857v365.714286a73.142857 73.142857 0 0 1-73.142858 73.142857H479.47581l-165.376 114.492953A29.257143 29.257143 0 0 1 268.190476 870.64381V780.190476H170.666667a73.142857 73.142857 0 0 1-73.142857-73.142857V341.333333a73.142857 73.142857 0 0 1 73.142857-73.142857h560.761904z m0 73.142857H170.666667v365.714286h170.666666v79.798857L456.630857 707.047619H731.428571V341.333333z m-285.744761 219.428572v73.142857H243.809524v-73.142857h201.874286zM853.333333 146.285714a73.142857 73.142857 0 0 1 73.142857 73.142857v390.095239h-73.142857V219.428571H292.571429V146.285714h560.761904zM585.142857 414.47619v73.142858H243.809524v-73.142858h341.333333z" p-id="8193" fill="#ffffff"></path></svg>